
<svg xmlns="http://www.w3.org/2000/svg" style="display: none;">

  <symbol id="rd-icon-spotter" viewBox="0 0 48 48" fill="currentColor">
    <g transform="translate(2.3,0) scale(0.0503)">
      <path d="M247.66,542.73c22.01,0,39.92-17.91,39.92-39.92s-17.91-39.92-39.92-39.92-39.92,17.91-39.92,39.92,17.91,39.92,39.92,39.92Z"/>
      <path d="M611.06,462.89c-22.01,0-39.92,17.91-39.92,39.92s17.91,39.92,39.92,39.92,39.92-17.91,39.92-39.92-17.91-39.92-39.92-39.92Z"/>
      <path d="M785.39,363.34h0c-5.88-1.07-12.08-2.13-18.46-3.14-17.29-55.41-47.27-104.42-89.14-145.72-1.24-1.76-2.62-3.38-4.12-4.82-4.29-4.17-106.83-103.28-257.13-196-17-10.48-38.44-9.69-54.63,2-12.43,8.98-19.86,23.14-20.37,38.16-27.83-17.54-53.3-33.52-73.31-46.03-17.81-11.14-40.23-10.27-57.12,2.21-16.89,12.49-24.3,33.66-18.86,53.95,3.59,13.42,7.43,26.85,11.42,40.03-14.52-4.71-30.4-2.97-43.85,5.09-19.03,11.42-28.94,32.93-25.24,54.81,5.19,30.63,10.03,60.17,14.02,85.57-25.87,33.35-45.43,70.96-58.15,111.85-4.04.67-7.96,1.35-11.69,2.03C29.24,372.37-5.08,418.61.62,468.63c3.73,32.8,10.79,82.71,23.23,134.24,8.32,34.42,34.03,61.14,67.47,70.38v34.73c0,141.13,142.13,244.04,338.51,245.67l4.73.04,3.78-.02v-.02c196.38-1.63,338.51-104.55,338.51-245.67v-35.95c31.38-10.26,55.56-36.52,63.45-69.16,12.43-51.48,19.5-101.42,23.23-134.24,5.69-50.01-28.63-96.27-78.13-105.29ZM210.33,281.14h0c6.39-7.51,9.19-17.42,7.69-27.17-3.05-19.82-6.59-41.97-10.56-65.97,17.9,12.81,33.19,22.58,45.55,29.11,12.59,6.65,28.13,4.68,38.67-4.89,10.53-9.56,13.99-24.83,8.61-38.01-10.67-26.06-20.8-54.65-30.16-85.11,39.49,24.8,75.77,47.71,107.93,68.19,12.21,7.76,28.01,6.94,39.33-2.04,11.33-8.98,15.73-24.19,10.95-37.83-2.28-6.53-4.49-13.17-6.59-19.84,106.83,70.87,184.63,142.03,200.19,156.57,1.25,1.74,2.65,3.34,4.16,4.76,27.75,26.38,49.55,57.39,64.88,92.25-50.4-4.01-101.33-4.22-151.49-.64-27.86,2.01-53.35,14.27-69.94,33.65-10.64,12.44-17.9,27.25-21.13,43.04-6.12-.68-12.36-1-16.33-1s-10.2.31-16.33,1c-3.23-15.78-10.49-30.6-21.14-43.04-16.58-19.38-42.07-31.64-69.94-33.65-23.63-1.69-47.42-2.53-71.26-2.53-29.01,0-58.09,1.25-87,3.75,11.32-25.9,26.08-49.63,43.92-70.6ZM111.68,610.71c-11.63-2.24-20.94-11.11-23.72-22.58-11.75-48.42-18.45-95.75-22-126.93-1.79-15.74,9-30.29,24.57-33.12,35.82-6.53,93.09-14.32,162.45-14.32,23.63,0,47.47.91,70.85,2.69,8.34.62,15.86,4.52,21.17,10.97,5.26,6.37,7.64,14.39,6.69,22.6-1.37,11.88-3.04,24.28-4.82,35.88-1.62,5.7-2.64,11.62-2.88,16.72-7.37,40.89-16.14,69.39-22.21,86.12-3.55,9.8-12.14,17.16-22.42,19.21-82.34,16.41-147.51,10.56-187.68,2.77ZM712.06,707.98c0,104.68-116.91,180.77-277.98,180.92-161.08-.15-277.99-76.24-277.99-180.92v-25.25c50.73,3.73,103.24.27,156.12-10.28,32.71-6.52,60.07-30,71.41-61.3,6.98-19.26,17.04-51.94,25.34-98.29,1.97-11.01,10.4-19.53,20.53-20.72,1.68-.21,3.45-.21,5.15,0,10.1,1.18,18.53,9.7,20.51,20.71,8.3,46.36,18.36,79.03,25.34,98.29,11.34,31.3,38.71,54.78,71.41,61.3,39.11,7.8,78.42,11.75,116.82,11.75,14.3,0,28.85-.6,43.32-1.77v25.55ZM798.16,461.19c-3.54,31.16-10.23,78.47-21.99,126.93-2.78,11.47-12.09,20.34-23.72,22.58-40.19,7.8-105.39,13.63-187.68-2.77-10.28-2.05-18.87-9.41-22.42-19.21-6.06-16.72-14.83-45.2-22.19-85.98-.26-5.22-1.27-11.14-2.87-16.73-1.79-11.58-3.47-24.02-4.85-36.01-.94-8.2,1.43-16.23,6.7-22.61,5.32-6.44,12.83-10.33,21.17-10.96,23.37-1.79,47.21-2.69,70.84-2.69,69.36,0,126.63,7.79,162.45,14.32,15.56,2.83,26.35,17.38,24.56,33.12Z"/>
    </g>
  </symbol>
  
  <symbol id="rd-icon-thoughtspot" viewBox="0 0 48 48">
    <circle cx="24" cy="24" r="10" fill="currentColor"/>
    <g stroke="currentColor" stroke-width="2" fill="none">
      <line x1="24" y1="2" x2="24" y2="12"/>
      <line x1="24" y1="36" x2="24" y2="46"/>
      <line x1="2" y1="24" x2="12" y2="24"/>
      <line x1="36" y1="24" x2="46" y2="24"/>
      <line x1="9.22" y1="9.22" x2="16.97" y2="16.97"/>
      <line x1="31.03" y1="31.03" x2="38.78" y2="38.78"/>
      <line x1="9.22" y1="38.78" x2="16.97" y2="31.03"/>
      <line x1="31.03" y1="16.97" x2="38.78" y2="9.22"/>
    </g>
  </symbol>
</svg>
